<svg xmlns="http://www.w3.org/2000/svg" viewBox="0 0 512 512" width="512" height="512">
  <defs>
    <linearGradient id="bg" x1="0%" y1="0%" x2="100%" y2="100%">
      <stop offset="0%" stop-color="#0a0a0a"/>
      <stop offset="100%" stop-color="#1a1a1a"/>
    </linearGradient>
    <linearGradient id="gold" x1="0%" y1="0%" x2="100%" y2="100%">
      <stop offset="0%" stop-color="#f5e6a3"/>
      <stop offset="50%" stop-color="#d4af37"/>
      <stop offset="100%" stop-color="#aa7c11"/>
    </linearGradient>
  </defs>
  <rect width="512" height="512" rx="128" fill="url(#bg)"/>
  <circle cx="256" cy="256" r="236" fill="none" stroke="url(#gold)" stroke-width="8" opacity="0.6"/>
  <g transform="translate(256, 256) scale(1.1) translate(-256, -256)">
    <path d="M 128 352 L 148 200 L 212 272 L 256 160 L 300 272 L 364 200 L 384 352 Z" fill="url(#gold)"/>
    <rect x="128" y="358" width="256" height="24" rx="6" fill="url(#gold)"/>
    <circle cx="148" cy="190" r="14" fill="#f5e6a3"/>
    <circle cx="256" cy="148" r="18" fill="#f5e6a3"/>
    <circle cx="364" cy="190" r="14" fill="#f5e6a3"/>
    <path d="M 256 100 L 260 118 L 278 122 L 260 126 L 256 144 L 252 126 L 234 122 L 252 118 Z" fill="url(#gold)"/>
  </g>
</svg>